<svg width="144" height="80" viewBox="0 0 144 80" fill="none" xmlns="http://www.w3.org/2000/svg">
<path d="M16.0026 18.626H0L19.6222 43.1099H35.6248L16.0026 18.626Z" fill="white"/>
<path d="M16.5588 71.4495H0.556274L20.1785 46.9609H36.1811L16.5588 71.4495Z" fill="white"/>
<path d="M15.3356 60.081V60.581H15.8356H22.5842V65.8885H10.0117V53.0083H15.3356V60.081Z" fill="white" stroke="#85C551"/>
<path d="M40.0939 52.5083V60.081H32.85V66.3885H46.4178V52.5083H40.0939Z" fill="white"/>
<path d="M53.6223 79.5L21.3782 47.4609H35.9621L68.2061 79.5H53.6223Z" fill="white" stroke="#85C551"/>
<path d="M32.85 36.2833H40.0939V43.1609H46.4178V29.9712H32.85V36.2833Z" fill="white"/>
<path d="M20.8196 42.6097L63.1614 0.5H77.7459L35.4041 42.6097H20.8196Z" fill="white" stroke="#85C551"/>
<path d="M15.8356 35.7833H15.3356V36.2833V42.6609H10.0117V30.4712H22.5842V35.7833H15.8356Z" fill="white" stroke="#85C551"/>
<path d="M69.0368 37.2051C68.5304 36.8621 68.0193 36.6906 67.5035 36.6906C67.2247 36.6906 66.9599 36.737 66.7182 36.8343C66.4766 36.9316 66.2629 37.066 66.0817 37.2468C65.9005 37.4229 65.7564 37.6314 65.6542 37.877C65.552 38.118 65.5009 38.3915 65.5009 38.6927C65.5009 38.9847 65.552 39.2488 65.6542 39.4898C65.7564 39.7308 65.8958 39.9394 66.0724 40.1201C66.2489 40.2962 66.4627 40.4353 66.7089 40.5326C66.9552 40.6299 67.2201 40.6763 67.4989 40.6763C68.0471 40.6763 68.5583 40.4862 69.0322 40.1109V42.5949C68.312 42.9054 67.6243 43.063 66.9784 43.063C66.3744 43.063 65.8029 42.961 65.2592 42.7571C64.7156 42.5532 64.237 42.2612 63.8188 41.8766C63.4053 41.4966 63.0707 41.0377 62.8245 40.5048C62.5782 39.9718 62.4528 39.3786 62.4528 38.7252C62.4528 38.0717 62.5736 37.4692 62.8105 36.927C63.0475 36.3848 63.3728 35.9167 63.7816 35.5227C64.1905 35.1288 64.6784 34.8229 65.2453 34.6051C65.8122 34.3873 66.4162 34.2761 67.0621 34.2761C67.773 34.2761 68.4282 34.4244 69.0322 34.7256V37.2051H69.0368Z" fill="white"/>
<path d="M77.4238 34.5263H80.365V42.7942H77.4238V41.8766C76.8012 42.6598 75.9509 43.0537 74.8868 43.0537C74.2828 43.0537 73.7298 42.9425 73.2234 42.7247C72.7169 42.5022 72.2755 42.1964 71.8991 41.7978C71.5227 41.3992 71.23 40.9312 71.0163 40.3936C70.8072 39.856 70.7003 39.272 70.7003 38.6371C70.7003 38.0439 70.8025 37.4831 71.007 36.9502C71.2114 36.4172 71.4949 35.9537 71.8619 35.5552C72.229 35.1566 72.6658 34.8415 73.1722 34.6144C73.6787 34.3827 74.2409 34.2668 74.8543 34.2668C75.8904 34.2668 76.7454 34.6283 77.4238 35.3466V34.5263ZM73.7391 38.6371C73.7391 38.9059 73.7856 39.1562 73.8832 39.3879C73.9807 39.6196 74.1108 39.8189 74.2781 39.9904C74.4454 40.1618 74.6452 40.2962 74.8775 40.3936C75.1098 40.4909 75.3607 40.5372 75.6302 40.5372C75.8905 40.5372 76.1321 40.4909 76.3644 40.3936C76.5967 40.2962 76.7965 40.1618 76.9638 39.9904C77.1311 39.8189 77.2658 39.6196 77.368 39.3925C77.4703 39.1654 77.5214 38.9244 77.5214 38.6649C77.5214 38.4054 77.4703 38.1644 77.368 37.9327C77.2658 37.7009 77.1311 37.5017 76.9638 37.3302C76.7965 37.1587 76.5967 37.0243 76.3644 36.927C76.1321 36.8297 75.8858 36.7833 75.6302 36.7833C75.3607 36.7833 75.1098 36.8297 74.8775 36.927C74.6452 37.0243 74.4454 37.1587 74.2781 37.3302C74.1108 37.5017 73.9807 37.6963 73.8832 37.9188C73.7856 38.1412 73.7391 38.3822 73.7391 38.6371Z" fill="white"/>
<path d="M82.3537 34.5263H85.281V35.5737C85.6806 35.0917 86.0849 34.7673 86.4938 34.6005C86.9027 34.4336 87.3813 34.3502 87.9342 34.3502C88.515 34.3502 89.0122 34.4429 89.4304 34.6329C89.8439 34.8229 90.1971 35.0871 90.4898 35.4301C90.7268 35.7081 90.8894 36.0233 90.973 36.3662C91.0613 36.7092 91.1031 37.1031 91.1031 37.5434V42.7988H88.1758V38.6232C88.1758 38.2154 88.1479 37.8863 88.0875 37.6314C88.0271 37.3812 87.9249 37.1772 87.7716 37.0289C87.6415 36.8992 87.4974 36.8111 87.3348 36.7555C87.1722 36.6999 87.0002 36.6767 86.819 36.6767C86.3219 36.6767 85.9455 36.825 85.6806 37.1216C85.4158 37.4182 85.2857 37.84 85.2857 38.3868V42.8035H82.3584V34.5263H82.3537Z" fill="white"/>
<path d="M54.549 59.7053V47.3082H57.4763V48.2258C58.099 47.4426 58.9539 47.0486 60.0319 47.0486C60.622 47.0486 61.175 47.1645 61.6907 47.3962C62.2018 47.6279 62.6479 47.9431 63.0243 48.337C63.4006 48.7356 63.6934 49.2036 63.9071 49.7412C64.1162 50.2788 64.2231 50.8535 64.2231 51.4653C64.2231 52.077 64.1162 52.6471 63.9071 53.1754C63.698 53.7037 63.4053 54.1625 63.0336 54.5611C62.6618 54.9596 62.2204 55.2701 61.7186 55.4972C61.2121 55.7243 60.6638 55.8356 60.0691 55.8356C59.0329 55.8356 58.1733 55.4787 57.481 54.7696V59.7053H54.549ZM61.1657 51.4653C61.1657 51.2057 61.1192 50.9647 61.0263 50.733C60.9333 50.5013 60.8032 50.302 60.6313 50.1305C60.4594 49.9591 60.255 49.82 60.0273 49.7181C59.7949 49.6161 59.544 49.5651 59.2745 49.5651C59.0143 49.5651 58.7727 49.6115 58.545 49.7088C58.3173 49.8061 58.1222 49.9405 57.9549 50.112C57.7877 50.2835 57.6529 50.4874 57.5507 50.7145C57.4485 50.9416 57.3973 51.1918 57.3973 51.4467C57.3973 51.7063 57.4438 51.9472 57.5414 52.1743C57.639 52.4014 57.7737 52.5961 57.9456 52.7629C58.1176 52.9298 58.322 53.0641 58.5497 53.1661C58.782 53.2681 59.0283 53.319 59.2838 53.319C59.544 53.319 59.7857 53.2727 60.0133 53.1754C60.241 53.0781 60.4362 52.9437 60.6034 52.7722C60.7707 52.6007 60.9055 52.4014 61.0077 52.1743C61.1145 51.9519 61.1657 51.7155 61.1657 51.4653Z" fill="white"/>
<path d="M65.8819 47.3082H68.8092V48.6614C69.1205 48.1655 69.5062 47.7901 69.9569 47.526C70.4076 47.2618 70.9373 47.1321 71.5413 47.1321C71.6157 47.1321 71.6993 47.1321 71.7922 47.1321C71.8852 47.1321 71.9874 47.1413 72.1082 47.1645V49.6439C72.1082 49.6439 71.3229 49.6208 70.849 49.6625C70.1706 49.7227 69.6595 49.8617 69.3203 50.2649C68.9811 50.6681 68.8092 51.2567 68.8092 52.0307V55.576H65.8819V47.3082Z" fill="white"/>
<path d="M106.576 47.3082H109.503V48.6614C109.815 48.1655 110.2 47.7901 110.651 47.526C111.102 47.2618 111.631 47.1321 112.235 47.1321C112.31 47.1321 112.393 47.1321 112.486 47.1321C112.579 47.1321 112.682 47.1413 112.802 47.1645V49.6439C112.802 49.6439 112.017 49.6208 111.543 49.6625C110.865 49.7227 110.354 49.8617 110.014 50.2649C109.675 50.6681 109.503 51.2567 109.503 52.0307V55.576H106.576V47.3082Z" fill="white"/>
<path d="M73.1537 51.3679C73.1537 50.7562 73.2791 50.1815 73.5254 49.6532C73.7716 49.1202 74.1155 48.6614 74.5616 48.2675C75.003 47.8736 75.528 47.5677 76.1367 47.3406C76.7454 47.1135 77.4099 47.0023 78.1347 47.0023C78.8456 47.0023 79.5054 47.1135 80.1141 47.3313C80.7228 47.5538 81.2525 47.8597 81.6986 48.249C82.1447 48.6429 82.4931 49.111 82.7394 49.6532C82.9857 50.1954 83.1111 50.7933 83.1111 51.4514C83.1111 52.1048 82.9857 52.7073 82.7301 53.2495C82.4746 53.7918 82.1307 54.2598 81.6893 54.6538C81.2479 55.0477 80.7182 55.3489 80.0955 55.5668C79.4776 55.7799 78.8038 55.8912 78.0836 55.8912C77.3727 55.8912 76.7129 55.7846 76.1135 55.5668C75.5094 55.3536 74.989 55.0477 74.5523 54.6491C74.1155 54.2506 73.7716 53.7779 73.5254 53.2217C73.2791 52.661 73.1537 52.0492 73.1537 51.3679ZM76.2436 51.4004C76.2436 51.6784 76.2947 51.9333 76.3969 52.1651C76.4991 52.3968 76.6339 52.5961 76.8012 52.7675C76.9684 52.939 77.1682 53.0734 77.4006 53.1707C77.6329 53.2681 77.8792 53.3144 78.1347 53.3144C78.3949 53.3144 78.6365 53.2681 78.8689 53.1707C79.1012 53.0734 79.301 52.939 79.4683 52.7675C79.6355 52.5961 79.7703 52.3922 79.8725 52.1651C79.9747 51.9333 80.0258 51.6831 80.0258 51.4143C80.0258 51.1548 79.9747 50.9138 79.8725 50.682C79.7703 50.4503 79.6355 50.251 79.4683 50.0796C79.301 49.9081 79.1012 49.7737 78.8689 49.6764C78.6365 49.579 78.3903 49.5327 78.1347 49.5327C77.8745 49.5327 77.6329 49.579 77.4006 49.6764C77.1682 49.7737 76.9684 49.9081 76.8012 50.0796C76.6339 50.251 76.4991 50.4503 76.3969 50.6774C76.2947 50.9045 76.2436 51.1455 76.2436 51.4004Z" fill="white"/>
<path d="M84.7932 59.7053V47.3082H87.7205V48.2258C88.3431 47.4426 89.198 47.0486 90.276 47.0486C90.8661 47.0486 91.4191 47.1645 91.9348 47.3962C92.446 47.6279 92.892 47.9431 93.2684 48.337C93.6448 48.7356 93.9375 49.2036 94.1512 49.7412C94.3603 50.2788 94.4672 50.8535 94.4672 51.4653C94.4672 52.077 94.3603 52.6471 94.1512 53.1754C93.9421 53.7037 93.6494 54.1625 93.2777 54.5611C92.906 54.9596 92.4645 55.2701 91.9627 55.4972C91.4563 55.7243 90.908 55.8356 90.3132 55.8356C89.277 55.8356 88.4174 55.4787 87.7251 54.7696V59.7053H84.7932ZM91.4052 51.4653C91.4052 51.2057 91.3587 50.9647 91.2657 50.733C91.1728 50.5013 91.0427 50.302 90.8708 50.1305C90.6989 49.9591 90.4944 49.82 90.2668 49.7181C90.0344 49.6161 89.7835 49.5651 89.514 49.5651C89.2538 49.5651 89.0122 49.6115 88.7845 49.7088C88.5568 49.8061 88.3617 49.9405 88.1944 50.112C88.0271 50.2835 87.8924 50.4874 87.7902 50.7145C87.6879 50.9416 87.6368 51.1918 87.6368 51.4467C87.6368 51.7063 87.6833 51.9472 87.7809 52.1743C87.8784 52.4014 88.0132 52.5961 88.1851 52.7629C88.357 52.9298 88.5615 53.0641 88.7892 53.1661C89.0215 53.2681 89.2677 53.319 89.5233 53.319C89.7835 53.319 90.0251 53.2727 90.2528 53.1754C90.4805 53.0781 90.6756 52.9437 90.8429 52.7722C91.0102 52.6007 91.1449 52.4014 91.2472 52.1743C91.354 51.9519 91.4052 51.7155 91.4052 51.4653Z" fill="white"/>
<path d="M98.7559 51.9333C98.7559 53.1893 99.3507 53.8196 100.536 53.8196C101.172 53.8196 101.651 53.56 101.976 53.0456H104.806C104.234 54.9365 102.808 55.8819 100.522 55.8819C99.82 55.8819 99.1788 55.7753 98.5979 55.5668C98.0171 55.3582 97.5153 55.057 97.1018 54.6723C96.6882 54.283 96.3676 53.8242 96.1399 53.2866C95.9123 52.749 95.8007 52.1465 95.8007 51.4792C95.8007 50.7933 95.9076 50.1723 96.126 49.6161C96.3397 49.0646 96.6464 48.5919 97.046 48.2072C97.4456 47.8226 97.9289 47.5213 98.4911 47.3128C99.058 47.1042 99.6945 46.9977 100.405 46.9977C101.107 46.9977 101.734 47.1042 102.297 47.3128C102.859 47.5213 103.333 47.8272 103.718 48.2258C104.104 48.6243 104.401 49.111 104.606 49.6856C104.81 50.2603 104.913 50.9091 104.913 51.6275V51.9333H98.7559ZM102.185 50.2418C102.087 49.8339 101.888 49.5049 101.586 49.2593C101.284 49.0136 100.917 48.8885 100.484 48.8885C100.034 48.8885 99.662 49.009 99.3786 49.2454C99.0951 49.4817 98.9139 49.8154 98.8349 50.2464H102.185V50.2418Z" fill="white"/>
<path d="M121.914 44.9909C121.914 44.7963 121.951 44.6155 122.026 44.4487C122.1 44.2772 122.202 44.1289 122.328 43.9992C122.458 43.8694 122.606 43.7674 122.778 43.6979C122.95 43.6238 123.132 43.5867 123.322 43.5867C123.517 43.5867 123.698 43.6238 123.866 43.6979C124.038 43.7721 124.186 43.874 124.316 43.9992C124.446 44.1289 124.549 44.2772 124.618 44.4487C124.693 44.6202 124.73 44.8009 124.73 44.9909C124.73 45.1809 124.693 45.3663 124.618 45.5378C124.544 45.7093 124.442 45.8576 124.316 45.9873C124.186 46.1171 124.038 46.2191 123.866 46.2886C123.694 46.3627 123.513 46.3998 123.322 46.3998C123.127 46.3998 122.946 46.3627 122.778 46.2886C122.606 46.2144 122.458 46.1125 122.328 45.9873C122.198 45.8576 122.095 45.7093 122.026 45.5378C121.951 45.3663 121.914 45.1856 121.914 44.9909ZM124.795 47.1321V55.5807H121.868V47.1321H124.795Z" fill="white"/>
<path d="M129.437 51.9333C129.437 53.1893 130.032 53.8196 131.216 53.8196C131.853 53.8196 132.332 53.56 132.657 53.0456H135.487C134.915 54.9365 133.489 55.8819 131.203 55.8819C130.501 55.8819 129.86 55.7753 129.279 55.5668C128.698 55.3582 128.196 55.057 127.783 54.6723C127.369 54.283 127.049 53.8242 126.821 53.2866C126.593 52.749 126.482 52.1465 126.482 51.4792C126.482 50.7933 126.589 50.1723 126.807 49.6161C127.021 49.0646 127.327 48.5919 127.727 48.2072C128.127 47.8226 128.61 47.5213 129.172 47.3128C129.739 47.1042 130.375 46.9977 131.086 46.9977C131.788 46.9977 132.415 47.1042 132.977 47.3128C133.54 47.5213 134.014 47.8272 134.399 48.2258C134.785 48.6243 135.082 49.111 135.287 49.6856C135.491 50.2603 135.593 50.9091 135.593 51.6275V51.9333H129.437ZM132.861 50.2418C132.764 49.8339 132.564 49.5049 132.262 49.2593C131.96 49.0136 131.593 48.8885 131.161 48.8885C130.71 48.8885 130.338 49.009 130.055 49.2454C129.771 49.4817 129.59 49.8154 129.511 50.2464H132.861V50.2418Z" fill="white"/>
<path d="M142.754 49.4354C142.215 49.1573 141.685 49.0183 141.169 49.0183C140.9 49.0183 140.681 49.0739 140.514 49.1805C140.347 49.2871 140.263 49.4307 140.263 49.6161C140.263 49.7134 140.277 49.7922 140.305 49.8478C140.333 49.9081 140.393 49.9637 140.482 50.0193C140.575 50.0749 140.709 50.1213 140.886 50.163C141.062 50.2047 141.299 50.2603 141.587 50.3252C142.396 50.4874 143 50.7747 143.4 51.1872C143.799 51.5997 143.999 52.128 143.999 52.7768C143.999 53.2588 143.901 53.6944 143.706 54.0837C143.511 54.4684 143.242 54.7974 142.898 55.057C142.554 55.3211 142.136 55.525 141.652 55.6687C141.169 55.8124 140.635 55.8865 140.054 55.8865C138.934 55.8865 137.87 55.6085 137.057 55.0477L137.805 52.8741C138.623 53.4349 139.399 53.713 140.133 53.713C140.403 53.713 140.626 53.6527 140.798 53.5369C140.969 53.4164 141.058 53.2681 141.058 53.0873C141.058 52.9807 141.044 52.8927 141.016 52.8232C140.988 52.7536 140.932 52.6888 140.844 52.6285C140.756 52.5683 140.63 52.5173 140.463 52.4663C140.296 52.42 140.077 52.369 139.808 52.3134C138.902 52.1326 138.27 51.8592 137.907 51.4977C137.545 51.1362 137.364 50.6403 137.364 50.0054C137.364 49.542 137.452 49.1249 137.624 48.7541C137.796 48.3834 138.042 48.0682 138.367 47.8133C138.693 47.5538 139.083 47.3591 139.538 47.2155C139.998 47.0764 140.505 47.0069 141.067 47.0069C141.982 47.0069 142.461 47.0672 143.265 47.3638L142.754 49.4354Z" fill="white"/>
<path d="M60.0505 36.6536C59.5115 36.3755 58.9818 36.2364 58.466 36.2364C58.1965 36.2364 57.9782 36.2921 57.8109 36.3987C57.6436 36.5052 57.56 36.6489 57.56 36.8343C57.56 36.9316 57.5739 37.0104 57.6018 37.066C57.6297 37.1263 57.6901 37.1819 57.7784 37.2375C57.8713 37.2931 58.006 37.3394 58.1826 37.3812C58.3592 37.4229 58.5961 37.4785 58.8842 37.5434C59.6927 37.7056 60.2968 37.9929 60.6964 38.4054C61.096 38.8178 61.2958 39.3462 61.2958 39.995C61.2958 40.477 61.1982 40.9126 61.003 41.3019C60.8079 41.6866 60.5384 42.0156 60.1945 42.2751C59.8507 42.5393 59.4325 42.7432 58.9493 42.8869C58.466 43.0306 57.9317 43.1047 57.3509 43.1047C56.2311 43.1047 55.167 42.8266 54.3539 42.2659L55.102 40.0923C55.9198 40.6531 56.6957 40.9312 57.4299 40.9312C57.6994 40.9312 57.9224 40.8709 58.0943 40.755C58.2662 40.6345 58.3545 40.4862 58.3545 40.3055C58.3545 40.1989 58.3406 40.1109 58.3127 40.0413C58.2848 39.9718 58.2291 39.9069 58.1408 39.8467C58.0525 39.7864 57.927 39.7355 57.7598 39.6845C57.5925 39.6381 57.3741 39.5872 57.1046 39.5315C56.1985 39.3508 55.5666 39.0774 55.2042 38.7159C54.8418 38.3544 54.6605 37.8585 54.6605 37.2236C54.6605 36.7601 54.7488 36.343 54.9208 35.9723C55.0927 35.6015 55.3389 35.2864 55.6642 35.0315C55.9894 34.772 56.3798 34.5773 56.8351 34.4336C57.2951 34.2946 57.8016 34.2251 58.3638 34.2251C59.2792 34.2251 59.7578 34.2853 60.5616 34.582L60.0505 36.6536Z" fill="white"/>
<path d="M118.457 49.5976V55.5807H115.46V49.5976H114.466V47.1042H115.46V44.5599H118.457V47.1042H120.162V49.5976H118.457Z" fill="white"/>
</svg>
