<svg width="144" height="80" viewBox="0 0 144 80" fill="none" xmlns="http://www.w3.org/2000/svg">
<path d="M16.0026 18.625H0L19.6222 43.1088H35.6248L16.0026 18.625Z" fill="#45B759"/>
<path d="M16.5609 71.4494H0.558289L20.1805 46.961H36.1831L16.5609 71.4494Z" fill="#45B759"/>
<path d="M23.0839 60.0813H15.8353V52.5086H9.51141V66.3888H23.0839V60.0813Z" fill="black"/>
<path d="M40.0939 52.5086V60.0813H32.85V66.3888H46.4178V52.5086H40.0939Z" fill="black"/>
<path d="M53.4163 80H69.4188L36.1684 46.961H20.1658L53.4163 80Z" fill="#85C551"/>
<path d="M32.85 36.2838H40.0939V43.1614H46.4178V29.9717H32.85V36.2838Z" fill="black"/>
<path d="M62.9548 0H78.9573L35.6101 43.1097H19.6075L62.9548 0Z" fill="#85C551"/>
<path d="M15.8353 43.1614V36.2838H23.0839V29.9717H9.51141V43.1614H15.8353Z" fill="black"/>
<path d="M69.0383 37.2055C68.5318 36.8626 68.0207 36.6911 67.505 36.6911C67.2262 36.6911 66.9613 36.7374 66.7197 36.8348C66.4781 36.9321 66.2644 37.0665 66.0831 37.2472C65.9019 37.4233 65.7579 37.6319 65.6557 37.8775C65.5534 38.1185 65.5023 38.3919 65.5023 38.6932C65.5023 38.9851 65.5534 39.2493 65.6557 39.4903C65.7579 39.7313 65.8973 39.9398 66.0738 40.1206C66.2504 40.2967 66.4641 40.4357 66.7104 40.533C66.9567 40.6304 67.2215 40.6767 67.5003 40.6767C68.0486 40.6767 68.5597 40.4867 69.0337 40.1113V42.5954C68.3135 42.9059 67.6258 43.0635 66.9799 43.0635C66.3759 43.0635 65.8043 42.9615 65.2607 42.7576C64.7171 42.5537 64.2385 42.2617 63.8203 41.877C63.4067 41.497 63.0722 41.0382 62.8259 40.5052C62.5797 39.9723 62.4542 39.3791 62.4542 38.7256C62.4542 38.0722 62.575 37.4697 62.812 36.9274C63.049 36.3852 63.3742 35.9171 63.7831 35.5232C64.192 35.1293 64.6799 34.8234 65.2468 34.6056C65.8136 34.3878 66.4177 34.2765 67.0635 34.2765C67.7745 34.2765 68.4296 34.4248 69.0337 34.7261V37.2055H69.0383Z" fill="black"/>
<path d="M77.4253 34.5268H80.3665V42.7947H77.4253V41.877C76.8026 42.6603 75.9523 43.0542 74.8883 43.0542C74.2842 43.0542 73.7313 42.943 73.2248 42.7251C72.7184 42.5027 72.2769 42.1968 71.9006 41.7982C71.5242 41.3997 71.2315 40.9316 71.0177 40.394C70.8086 39.8564 70.7018 39.2725 70.7018 38.6376C70.7018 38.0443 70.804 37.4836 71.0084 36.9506C71.2129 36.4177 71.4963 35.9542 71.8634 35.5556C72.2305 35.1571 72.6672 34.8419 73.1737 34.6148C73.6802 34.3831 74.2424 34.2673 74.8557 34.2673C75.8919 34.2673 76.7469 34.6288 77.4253 35.3471V34.5268ZM73.7406 38.6376C73.7406 38.9064 73.787 39.1566 73.8846 39.3883C73.9822 39.6201 74.1123 39.8193 74.2796 39.9908C74.4469 40.1623 74.6467 40.2967 74.879 40.394C75.1113 40.4913 75.3622 40.5377 75.6317 40.5377C75.8919 40.5377 76.1335 40.4913 76.3659 40.394C76.5982 40.2967 76.798 40.1623 76.9653 39.9908C77.1325 39.8193 77.2673 39.6201 77.3695 39.393C77.4717 39.1659 77.5228 38.9249 77.5228 38.6654C77.5228 38.4058 77.4717 38.1648 77.3695 37.9331C77.2673 37.7014 77.1325 37.5021 76.9653 37.3306C76.798 37.1592 76.5982 37.0248 76.3659 36.9274C76.1335 36.8301 75.8873 36.7838 75.6317 36.7838C75.3622 36.7838 75.1113 36.8301 74.879 36.9274C74.6467 37.0248 74.4469 37.1592 74.2796 37.3306C74.1123 37.5021 73.9822 37.6968 73.8846 37.9192C73.787 38.1417 73.7406 38.3827 73.7406 38.6376Z" fill="black"/>
<path d="M82.3552 34.5268H85.2825V35.5742C85.6821 35.0922 86.0864 34.7678 86.4953 34.6009C86.9041 34.4341 87.3827 34.3507 87.9357 34.3507C88.5165 34.3507 89.0137 34.4434 89.4319 34.6334C89.8454 34.8234 90.1985 35.0876 90.4913 35.4305C90.7282 35.7086 90.8908 36.0237 90.9745 36.3667C91.0628 36.7096 91.1046 37.1036 91.1046 37.5438V42.7993H88.1773V38.6237C88.1773 38.2158 88.1494 37.8868 88.089 37.6319C88.0286 37.3816 87.9264 37.1777 87.773 37.0294C87.6429 36.8996 87.4989 36.8116 87.3363 36.756C87.1736 36.7004 87.0017 36.6772 86.8205 36.6772C86.3233 36.6772 85.947 36.8255 85.6821 37.1221C85.4173 37.4187 85.2872 37.8404 85.2872 38.3873V42.8039H82.3599V34.5268H82.3552Z" fill="black"/>
<path d="M54.5505 59.7058V47.3086H57.4778V48.2262C58.1004 47.443 58.9554 47.0491 60.0334 47.0491C60.6235 47.0491 61.1764 47.1649 61.6922 47.3967C62.2033 47.6284 62.6494 47.9435 63.0257 48.3375C63.4021 48.736 63.6948 49.2041 63.9086 49.7417C64.1177 50.2793 64.2245 50.854 64.2245 51.4657C64.2245 52.0775 64.1177 52.6475 63.9086 53.1758C63.6995 53.7042 63.4068 54.163 63.035 54.5615C62.6633 54.9601 62.2219 55.2706 61.7201 55.4977C61.2136 55.7248 60.6653 55.836 60.0706 55.836C59.0344 55.836 58.1748 55.4791 57.4824 54.7701V59.7058H54.5505ZM61.1671 51.4657C61.1671 51.2062 61.1207 50.9652 61.0277 50.7335C60.9348 50.5017 60.8047 50.3025 60.6328 50.131C60.4609 49.9595 60.2564 49.8205 60.0287 49.7185C59.7964 49.6166 59.5455 49.5656 59.276 49.5656C59.0158 49.5656 58.7742 49.6119 58.5465 49.7093C58.3188 49.8066 58.1237 49.941 57.9564 50.1125C57.7891 50.2839 57.6544 50.4878 57.5521 50.7149C57.4499 50.942 57.3988 51.1923 57.3988 51.4472C57.3988 51.7067 57.4453 51.9477 57.5429 52.1748C57.6404 52.4019 57.7752 52.5965 57.9471 52.7634C58.119 52.9302 58.3235 53.0646 58.5511 53.1666C58.7835 53.2685 59.0297 53.3195 59.2853 53.3195C59.5455 53.3195 59.7871 53.2731 60.0148 53.1758C60.2425 53.0785 60.4376 52.9441 60.6049 52.7726C60.7722 52.6012 60.9069 52.4019 61.0091 52.1748C61.116 51.9523 61.1671 51.716 61.1671 51.4657Z" fill="black"/>
<path d="M65.8833 47.3086H68.8106V48.6619C69.122 48.166 69.5076 47.7906 69.9583 47.5264C70.409 47.2623 70.9387 47.1325 71.5428 47.1325C71.6171 47.1325 71.7008 47.1325 71.7937 47.1325C71.8866 47.1325 71.9889 47.1418 72.1097 47.1649V49.6444C72.1097 49.6444 71.3244 49.6212 70.8505 49.6629C70.1721 49.7232 69.661 49.8622 69.3218 50.2654C68.9826 50.6686 68.8106 51.2572 68.8106 52.0311V55.5765H65.8833V47.3086Z" fill="black"/>
<path d="M106.577 47.3086H109.505V48.6619C109.816 48.166 110.202 47.7906 110.652 47.5264C111.103 47.2623 111.633 47.1325 112.237 47.1325C112.311 47.1325 112.395 47.1325 112.488 47.1325C112.581 47.1325 112.683 47.1418 112.804 47.1649V49.6444C112.804 49.6444 112.019 49.6212 111.545 49.6629C110.866 49.7232 110.355 49.8622 110.016 50.2654C109.677 50.6686 109.505 51.2572 109.505 52.0311V55.5765H106.577V47.3086Z" fill="black"/>
<path d="M73.1551 51.3684C73.1551 50.7566 73.2806 50.182 73.5268 49.6536C73.7731 49.1207 74.117 48.6619 74.563 48.2679C75.0044 47.874 75.5295 47.5681 76.1382 47.3411C76.7469 47.114 77.4113 47.0027 78.1362 47.0027C78.8471 47.0027 79.5069 47.114 80.1156 47.3318C80.7243 47.5542 81.254 47.8601 81.7001 48.2494C82.1461 48.6433 82.4946 49.1114 82.7409 49.6536C82.9871 50.1959 83.1126 50.7937 83.1126 51.4518C83.1126 52.1053 82.9871 52.7077 82.7316 53.25C82.476 53.7922 82.1322 54.2603 81.6908 54.6542C81.2493 55.0481 80.7197 55.3494 80.097 55.5672C79.479 55.7804 78.8053 55.8916 78.0851 55.8916C77.3742 55.8916 76.7144 55.785 76.115 55.5672C75.5109 55.354 74.9905 55.0481 74.5537 54.6496C74.1169 54.251 73.7731 53.7783 73.5268 53.2222C73.2806 52.6614 73.1551 52.0497 73.1551 51.3684ZM76.2451 51.4008C76.2451 51.6789 76.2962 51.9338 76.3984 52.1655C76.5006 52.3972 76.6354 52.5965 76.8026 52.768C76.9699 52.9395 77.1697 53.0739 77.402 53.1712C77.6344 53.2685 77.8806 53.3149 78.1362 53.3149C78.3964 53.3149 78.638 53.2685 78.8703 53.1712C79.1027 53.0739 79.3025 52.9395 79.4697 52.768C79.637 52.5965 79.7718 52.3926 79.874 52.1655C79.9762 51.9338 80.0273 51.6835 80.0273 51.4147C80.0273 51.1552 79.9762 50.9142 79.874 50.6825C79.7718 50.4508 79.637 50.2515 79.4697 50.08C79.3025 49.9085 79.1027 49.7741 78.8703 49.6768C78.638 49.5795 78.3917 49.5331 78.1362 49.5331C77.876 49.5331 77.6344 49.5795 77.402 49.6768C77.1697 49.7741 76.9699 49.9085 76.8026 50.08C76.6354 50.2515 76.5006 50.4508 76.3984 50.6779C76.2962 50.9049 76.2451 51.1459 76.2451 51.4008Z" fill="black"/>
<path d="M84.7946 59.7058V47.3086H87.7219V48.2262C88.3446 47.443 89.1995 47.0491 90.2775 47.0491C90.8676 47.0491 91.4206 47.1649 91.9363 47.3967C92.4474 47.6284 92.8935 47.9435 93.2699 48.3375C93.6462 48.736 93.939 49.2041 94.1527 49.7417C94.3618 50.2793 94.4687 50.854 94.4687 51.4657C94.4687 52.0775 94.3618 52.6475 94.1527 53.1758C93.9436 53.7042 93.6509 54.163 93.2792 54.5615C92.9074 54.9601 92.466 55.2706 91.9642 55.4977C91.4577 55.7248 90.9094 55.836 90.3147 55.836C89.2785 55.836 88.4189 55.4791 87.7266 54.7701V59.7058H84.7946ZM91.4066 51.4657C91.4066 51.2062 91.3601 50.9652 91.2672 50.7335C91.1743 50.5017 91.0442 50.3025 90.8723 50.131C90.7003 49.9595 90.4959 49.8205 90.2682 49.7185C90.0359 49.6166 89.785 49.5656 89.5155 49.5656C89.2553 49.5656 89.0137 49.6119 88.786 49.7093C88.5583 49.8066 88.3632 49.941 88.1959 50.1125C88.0286 50.2839 87.8939 50.4878 87.7916 50.7149C87.6894 50.942 87.6383 51.1923 87.6383 51.4472C87.6383 51.7067 87.6848 51.9477 87.7823 52.1748C87.8799 52.4019 88.0147 52.5965 88.1866 52.7634C88.3585 52.9302 88.563 53.0646 88.7906 53.1666C89.023 53.2685 89.2692 53.3195 89.5248 53.3195C89.785 53.3195 90.0266 53.2731 90.2543 53.1758C90.482 53.0785 90.6771 52.9441 90.8444 52.7726C91.0117 52.6012 91.1464 52.4019 91.2486 52.1748C91.3555 51.9523 91.4066 51.716 91.4066 51.4657Z" fill="black"/>
<path d="M98.7574 51.9338C98.7574 53.1897 99.3521 53.82 100.537 53.82C101.174 53.82 101.652 53.5605 101.977 53.0461H104.807C104.236 54.9369 102.809 55.8823 100.523 55.8823C99.8214 55.8823 99.1802 55.7758 98.5994 55.5672C98.0186 55.3587 97.5168 55.0574 97.1032 54.6728C96.6897 54.2835 96.3691 53.8247 96.1414 53.2871C95.9137 52.7495 95.8022 52.147 95.8022 51.4796C95.8022 50.7937 95.9091 50.1727 96.1275 49.6166C96.3412 49.0651 96.6479 48.5924 97.0475 48.2077C97.4471 47.823 97.9303 47.5218 98.4925 47.3132C99.0594 47.1047 99.696 46.9981 100.407 46.9981C101.109 46.9981 101.736 47.1047 102.298 47.3132C102.86 47.5218 103.334 47.8277 103.72 48.2262C104.106 48.6248 104.403 49.1114 104.607 49.6861C104.812 50.2608 104.914 50.9096 104.914 51.6279V51.9338H98.7574ZM102.187 50.2422C102.089 49.8344 101.889 49.5053 101.587 49.2597C101.285 49.0141 100.918 48.889 100.486 48.889C100.035 48.889 99.6635 49.0095 99.38 49.2458C99.0966 49.4822 98.9154 49.8159 98.8364 50.2469H102.187V50.2422Z" fill="black"/>
<path d="M121.916 44.9914C121.916 44.7967 121.953 44.616 122.027 44.4492C122.101 44.2777 122.204 44.1294 122.329 43.9996C122.459 43.8698 122.608 43.7679 122.78 43.6984C122.952 43.6242 123.133 43.5871 123.324 43.5871C123.519 43.5871 123.7 43.6242 123.867 43.6984C124.039 43.7725 124.188 43.8745 124.318 43.9996C124.448 44.1294 124.55 44.2777 124.62 44.4492C124.694 44.6206 124.731 44.8014 124.731 44.9914C124.731 45.1814 124.694 45.3668 124.62 45.5383C124.546 45.7097 124.443 45.858 124.318 45.9878C124.188 46.1176 124.039 46.2195 123.867 46.289C123.695 46.3632 123.514 46.4003 123.324 46.4003C123.128 46.4003 122.947 46.3632 122.78 46.289C122.608 46.2149 122.459 46.1129 122.329 45.9878C122.199 45.858 122.097 45.7097 122.027 45.5383C121.953 45.3668 121.916 45.186 121.916 44.9914ZM124.796 47.1325V55.5811H121.869V47.1325H124.796Z" fill="black"/>
<path d="M129.438 51.9338C129.438 53.1897 130.033 53.82 131.218 53.82C131.854 53.82 132.333 53.5605 132.658 53.0461H135.488C134.917 54.9369 133.49 55.8823 131.204 55.8823C130.502 55.8823 129.861 55.7758 129.28 55.5672C128.7 55.3587 128.198 55.0574 127.784 54.6728C127.371 54.2835 127.05 53.8247 126.822 53.2871C126.595 52.7495 126.483 52.147 126.483 51.4796C126.483 50.7937 126.59 50.1727 126.808 49.6166C127.022 49.0651 127.329 48.5924 127.728 48.2077C128.128 47.823 128.611 47.5218 129.173 47.3132C129.74 47.1047 130.377 46.9981 131.088 46.9981C131.789 46.9981 132.417 47.1047 132.979 47.3132C133.541 47.5218 134.015 47.8277 134.401 48.2262C134.786 48.6248 135.084 49.1114 135.288 49.6861C135.493 50.2608 135.595 50.9096 135.595 51.6279V51.9338H129.438ZM132.863 50.2422C132.765 49.8344 132.565 49.5053 132.263 49.2597C131.961 49.0141 131.594 48.889 131.162 48.889C130.711 48.889 130.34 49.0095 130.056 49.2458C129.773 49.4822 129.592 49.8159 129.513 50.2469H132.863V50.2422Z" fill="black"/>
<path d="M142.755 49.4358C142.216 49.1578 141.686 49.0187 141.171 49.0187C140.901 49.0187 140.683 49.0743 140.516 49.1809C140.348 49.2875 140.265 49.4312 140.265 49.6166C140.265 49.7139 140.279 49.7927 140.306 49.8483C140.334 49.9085 140.395 49.9642 140.483 50.0198C140.576 50.0754 140.711 50.1217 140.887 50.1634C141.064 50.2051 141.301 50.2608 141.589 50.3256C142.397 50.4878 143.001 50.7752 143.401 51.1876C143.801 51.6001 144 52.1284 144 52.7773C144 53.2592 143.903 53.6949 143.708 54.0842C143.513 54.4688 143.243 54.7979 142.899 55.0574C142.555 55.3216 142.137 55.5255 141.654 55.6692C141.171 55.8128 140.636 55.887 140.056 55.887C138.936 55.887 137.872 55.6089 137.059 55.0481L137.807 52.8746C138.624 53.4354 139.4 53.7134 140.135 53.7134C140.404 53.7134 140.627 53.6532 140.799 53.5373C140.971 53.4168 141.059 53.2685 141.059 53.0878C141.059 52.9812 141.045 52.8931 141.017 52.8236C140.99 52.7541 140.934 52.6892 140.845 52.629C140.757 52.5687 140.632 52.5177 140.464 52.4668C140.297 52.4204 140.079 52.3694 139.809 52.3138C138.903 52.1331 138.271 51.8596 137.909 51.4982C137.546 51.1367 137.365 50.6408 137.365 50.0059C137.365 49.5424 137.454 49.1253 137.625 48.7546C137.797 48.3838 138.044 48.0687 138.369 47.8138C138.694 47.5542 139.084 47.3596 139.54 47.2159C140 47.0769 140.506 47.0074 141.069 47.0074C141.984 47.0074 142.462 47.0676 143.266 47.3642L142.755 49.4358Z" fill="black"/>
<path d="M60.052 36.654C59.513 36.3759 58.9833 36.2369 58.4675 36.2369C58.198 36.2369 57.9796 36.2925 57.8123 36.3991C57.6451 36.5057 57.5614 36.6494 57.5614 36.8348C57.5614 36.9321 57.5754 37.0109 57.6033 37.0665C57.6311 37.1267 57.6915 37.1823 57.7798 37.2379C57.8728 37.2936 58.0075 37.3399 58.1841 37.3816C58.3606 37.4233 58.5976 37.4789 58.8857 37.5438C59.6942 37.706 60.2982 37.9934 60.6978 38.4058C61.0974 38.8183 61.2972 39.3466 61.2972 39.9954C61.2972 40.4774 61.1996 40.9131 61.0045 41.3024C60.8093 41.687 60.5398 42.0161 60.196 42.2756C59.8522 42.5398 59.434 42.7437 58.9507 42.8873C58.4675 43.031 57.9332 43.1052 57.3523 43.1052C56.2325 43.1052 55.1685 42.8271 54.3553 42.2663L55.1034 40.0928C55.9212 40.6535 56.6972 40.9316 57.4313 40.9316C57.7008 40.9316 57.9239 40.8714 58.0958 40.7555C58.2677 40.635 58.356 40.4867 58.356 40.306C58.356 40.1994 58.342 40.1113 58.3142 40.0418C58.2863 39.9723 58.2305 39.9074 58.1422 39.8471C58.054 39.7869 57.9285 39.7359 57.7612 39.6849C57.594 39.6386 57.3756 39.5876 57.1061 39.532C56.2 39.3513 55.5681 39.0778 55.2057 38.7163C54.8432 38.3549 54.662 37.859 54.662 37.224C54.662 36.7606 54.7503 36.3435 54.9222 35.9727C55.0941 35.602 55.3404 35.2868 55.6657 35.032C55.9909 34.7724 56.3812 34.5778 56.8366 34.4341C57.2966 34.2951 57.8031 34.2256 58.3653 34.2256C59.2806 34.2256 59.7592 34.2858 60.5631 34.5824L60.052 36.654Z" fill="black"/>
<path d="M118.459 49.598V55.5811H115.462V49.598H114.467V47.1047H115.462V44.5604H118.459V47.1047H120.164V49.598H118.459Z" fill="black"/>
</svg>
