<svg width="40" height="34" viewBox="0 0 40 34" fill="none" xmlns="http://www.w3.org/2000/svg">
<path d="M14.3533 0.333344L16.9367 2.91334L9.89667 9.78001L25.3817 25.265L32.4183 18.3983L35 20.98V0.333344H14.3533ZM26.6667 12C24.8267 12 23.3333 10.5067 23.3333 8.66668C23.3333 6.82668 24.8267 5.33334 26.6667 5.33334C28.5067 5.33334 30 6.82668 30 8.66668C30 10.5067 28.5067 12 26.6667 12ZM19.5483 24.1183L16.6667 27H13.3333V30.3333H10V33.6667H0V31.5117L11.355 19.9867L10.26 18.9017L0 29.155V25.3333L10.365 14.995L19.5483 24.1183ZM37.8467 5.82001L36.6667 7.00001V12.1617L40 8.72001L37.8467 5.82001Z" fill="#45B759"/>
</svg>
